<?xml version="1.0" ?>
<!-- Uploaded to: SVG Repo, www.svgrepo.com, Generator: SVG Repo Mixer Tools -->
<svg fill="#000000" width="800px" height="800px" viewBox="0 0 64 64" xmlns="http://www.w3.org/2000/svg">
<g id="clown">
<path d="M6.7,15.4561a1,1,0,0,0-1.4141,0l-.7671.767-.767-.767A1,1,0,0,0,2.3379,16.87l.7671.7671-.7671.7671A1,1,0,1,0,3.752,19.8184l.767-.7671.7671.7671A1,1,0,1,0,6.7,18.4043l-.7671-.7671L6.7,16.87A1,1,0,0,0,6.7,15.4561Z"/>
<path d="M32,11A24,24,0,1,0,56,35,24.0275,24.0275,0,0,0,32,11Zm0,2A22.0248,22.0248,0,0,1,54,35c0,.1743-.0092.3464-.0132.52a47.9875,47.9875,0,0,0-10.7925-1.68h-.1132a3.9325,3.9325,0,0,0-3.5118,2.23C38.6885,37.8623,36.66,40,32,40s-6.6885-2.1377-7.5693-3.9316A3.9332,3.9332,0,0,0,20.9189,33.84h-.1142a47.9859,47.9859,0,0,0-10.7915,1.68C10.0092,35.3464,10,35.1743,10,35A22.0248,22.0248,0,0,1,32,13Zm0,44A22.0284,22.0284,0,0,1,10.1525,37.55a47.0092,47.0092,0,0,1,10.65-1.71h.1045a1.9465,1.9465,0,0,1,1.7285,1.11C23.5615,38.8369,26.0107,42,32,42s8.4385-3.1631,9.3643-5.0488A1.9456,1.9456,0,0,1,43.0928,35.84h.1045a47.0047,47.0047,0,0,1,10.65,1.71A22.0285,22.0285,0,0,1,32,57Z"/>
<path d="M56,55a3,3,0,1,0,3,3A3.0033,3.0033,0,0,0,56,55Zm0,4a1,1,0,1,1,1-1A1.0006,1.0006,0,0,1,56,59Z"/>
<circle cx="59" cy="47" r="1"/>
<path d="M32,38a5,5,0,1,0-5-5A5.0059,5.0059,0,0,0,32,38Z"/>
<path d="M19.667,28.6621a1.004,1.004,0,0,0,1.2764-.61,1.1073,1.1073,0,0,1,2.1015.0429,1,1,0,1,0,1.91-.59,3.1074,3.1074,0,0,0-5.8985-.1192A1.0016,1.0016,0,0,0,19.667,28.6621Z"/>
<path d="M39.667,28.6621a1.0044,1.0044,0,0,0,1.2764-.61,1.1073,1.1073,0,0,1,2.1015.0429,1,1,0,1,0,1.91-.59,3.1074,3.1074,0,0,0-5.8985-.1192A1.0016,1.0016,0,0,0,39.667,28.6621Z"/>
<path d="M38.0352,42.23A8.5406,8.5406,0,0,1,32,44.5a8.54,8.54,0,0,1-6.0342-2.27,2.48,2.48,0,0,0-1.7646-.73h-.002a2.5,2.5,0,0,0-1.7637,4.27A13.56,13.56,0,0,0,32,49.5a13.56,13.56,0,0,0,9.5645-3.73,2.4991,2.4991,0,0,0,.0058-3.5351A2.5577,2.5577,0,0,0,38.0352,42.23Z"/>
</g>
</svg>